<svg xmlns="http://www.w3.org/2000/svg" width="24" height="16" viewBox="0 0 12 8" shape-rendering="crispEdges">
  <rect x="0" y="3" width="1" height="2" fill="#0a0a0a"/>
  <rect x="1" y="2" width="1" height="1" fill="#0a0a0a"/>
  <rect x="1" y="5" width="1" height="1" fill="#0a0a0a"/>
  <rect x="2" y="1" width="1" height="1" fill="#0a0a0a"/>
  <rect x="2" y="6" width="1" height="1" fill="#0a0a0a"/>
  <rect x="3" y="3" width="1" height="2" fill="#0a0a0a"/>
  <rect x="1" y="3" width="1" height="2" fill="#10b981"/>
  <rect x="2" y="2" width="1" height="1" fill="#10b981"/>
  <rect x="2" y="5" width="1" height="1" fill="#10b981"/>
  <rect x="11" y="3" width="1" height="2" fill="#0a0a0a"/>
  <rect x="10" y="2" width="1" height="1" fill="#0a0a0a"/>
  <rect x="10" y="5" width="1" height="1" fill="#0a0a0a"/>
  <rect x="9" y="1" width="1" height="1" fill="#0a0a0a"/>
  <rect x="9" y="6" width="1" height="1" fill="#0a0a0a"/>
  <rect x="8" y="3" width="1" height="2" fill="#0a0a0a"/>
  <rect x="10" y="3" width="1" height="2" fill="#10b981"/>
  <rect x="9" y="2" width="1" height="1" fill="#10b981"/>
  <rect x="9" y="5" width="1" height="1" fill="#10b981"/>
  <rect x="4" y="3" width="4" height="2" fill="#0a0a0a"/>
  <rect x="5" y="4" width="2" height="1" fill="#fafafa"/>
</svg>
