<svg xmlns="http://www.w3.org/2000/svg" width="24" height="28" viewBox="0 0 12 14" shape-rendering="crispEdges">
  <rect x="0" y="0" width="1" height="1" fill="#fafafa"/>
  <rect x="0" y="1" width="1" height="2" fill="#fafafa"/>
  <rect x="1" y="1" width="1" height="1" fill="#fafafa"/>
  <rect x="1" y="2" width="1" height="1" fill="#10b981"/>
  <rect x="2" y="2" width="1" height="1" fill="#fafafa"/>
  <rect x="2" y="3" width="1" height="1" fill="#10b981"/>
  <rect x="3" y="3" width="1" height="1" fill="#fafafa"/>
  <rect x="3" y="4" width="1" height="1" fill="#10b981"/>
  <rect x="4" y="4" width="1" height="1" fill="#fafafa"/>
  <rect x="4" y="5" width="1" height="1" fill="#10b981"/>
  <rect x="5" y="5" width="1" height="1" fill="#fafafa"/>
  <rect x="5" y="6" width="1" height="1" fill="#10b981"/>
  <rect x="6" y="6" width="1" height="1" fill="#fafafa"/>
  <rect x="6" y="7" width="1" height="1" fill="#10b981"/>
  <rect x="7" y="7" width="1" height="1" fill="#fafafa"/>
  <rect x="7" y="8" width="1" height="1" fill="#10b981"/>
  <rect x="8" y="8" width="1" height="1" fill="#fafafa"/>
  <rect x="0" y="3" width="1" height="6" fill="#fafafa"/>
  <rect x="1" y="3" width="1" height="1" fill="#10b981"/>
  <rect x="1" y="4" width="1" height="1" fill="#10b981"/>
  <rect x="1" y="5" width="1" height="1" fill="#10b981"/>
  <rect x="1" y="6" width="1" height="1" fill="#10b981"/>
  <rect x="1" y="7" width="1" height="1" fill="#10b981"/>
  <rect x="2" y="4" width="1" height="1" fill="#10b981"/>
  <rect x="2" y="5" width="1" height="1" fill="#10b981"/>
  <rect x="2" y="6" width="1" height="1" fill="#10b981"/>
  <rect x="3" y="5" width="1" height="1" fill="#10b981"/>
  <rect x="3" y="6" width="1" height="1" fill="#10b981"/>
  <rect x="4" y="6" width="1" height="1" fill="#10b981"/>
  <rect x="8" y="9" width="1" height="1" fill="#fafafa"/>
  <rect x="7" y="9" width="1" height="1" fill="#fafafa"/>
  <rect x="6" y="9" width="1" height="1" fill="#fafafa"/>
  <rect x="5" y="9" width="1" height="1" fill="#fafafa"/>
  <rect x="4" y="9" width="1" height="1" fill="#fafafa"/>
  <rect x="3" y="9" width="1" height="1" fill="#fafafa"/>
  <rect x="2" y="9" width="1" height="1" fill="#fafafa"/>
  <rect x="1" y="8" width="1" height="1" fill="#fafafa"/>
  <rect x="2" y="8" width="1" height="1" fill="#10b981"/>
  <rect x="3" y="8" width="1" height="1" fill="#10b981"/>
  <rect x="4" y="8" width="1" height="1" fill="#10b981"/>
  <rect x="5" y="8" width="1" height="1" fill="#10b981"/>
  <rect x="2" y="10" width="1" height="1" fill="#fafafa"/>
  <rect x="3" y="10" width="1" height="1" fill="#fafafa"/>
  <rect x="4" y="10" width="1" height="1" fill="#10b981"/>
  <rect x="3" y="11" width="1" height="1" fill="#fafafa"/>
  <rect x="4" y="11" width="1" height="1" fill="#fafafa"/>
  <rect x="2" y="11" width="1" height="1" fill="#fafafa"/>
  <rect x="1" y="9" width="1" height="3" fill="#fafafa"/>
  <rect x="2" y="12" width="1" height="1" fill="#fafafa"/>
</svg>
